<?xml version="1.0" encoding="UTF-8"?> <svg xmlns="http://www.w3.org/2000/svg" id="Слой_1" data-name="Слой 1" viewBox="0 0 100 100"> <defs> <style>.cls-1{fill:#e62254;}.cls-2{fill:#fff;}</style> </defs> <title>kid1Монтажная область 1</title> <circle class="cls-1" cx="49.91" cy="50.02" r="50"></circle> <path class="cls-2" d="M75.39,46.48h-1V44.65C74.44,30.5,63.51,19,50.07,19h0a23.64,23.64,0,0,0-17.26,7.53,26.16,26.16,0,0,0-7.15,18.12v1.84h-.61c-2.81,0-5.11,2.86-5.11,6.36a7.31,7.31,0,0,0,1.42,4.42,4.64,4.64,0,0,0,3.7,2H26C27.73,71.56,37.83,81,50.05,81h0a23.64,23.64,0,0,0,17.26-7.53,26,26,0,0,0,6.85-14.24h1.22c2.81,0,5.11-2.86,5.11-6.36S78.2,46.48,75.39,46.48ZM50.07,21A22.16,22.16,0,0,1,69,32.08a25.05,25.05,0,0,1-15.41-.49A25.12,25.12,0,0,1,41.5,22.76,21.07,21.07,0,0,1,50.07,21Zm-25,36.29a2.74,2.74,0,0,1-2.13-1.19,5.31,5.31,0,0,1-1-3.2c0-2.38,1.43-4.39,3.13-4.39h.6v4.07h0v2.82a16.52,16.52,0,0,0,.07,1.88ZM65.91,72.12A21.68,21.68,0,0,1,50.07,79h0C37.7,79,27.64,68.41,27.64,55.35V47.47h0V44.64a24.23,24.23,0,0,1,6.6-16.76,22.46,22.46,0,0,1,5.46-4.23A27.13,27.13,0,0,0,53,33.47a28.48,28.48,0,0,0,9.24,1.59A25.56,25.56,0,0,0,70,33.86a24.57,24.57,0,0,1,2.46,10.79v7.88h0v2.82A24.21,24.21,0,0,1,65.91,72.12Zm9.47-14.86h-1c0-.62.07-1.24.07-1.87V48.46h1c1.7,0,3.13,2,3.12,4.38S77.08,57.26,75.38,57.26Z"></path> <path class="cls-2" d="M58.91,65a1,1,0,0,0-1.3.5l0,0a7.91,7.91,0,0,1-14.43.31,1,1,0,0,0-1.79.85,9.9,9.9,0,0,0,18.05-.39A1,1,0,0,0,58.91,65Z"></path> <path class="cls-2" d="M50.21,61.64h.28a7,7,0,0,0,5.15-2.73,1,1,0,0,0-1.47-1.32c-1.29,1.43-2.57,2.13-3.84,2.07a5.19,5.19,0,0,1-3.38-2,1,1,0,0,0-1.6,1.17A7.11,7.11,0,0,0,50.21,61.64Z"></path> <path class="cls-2" d="M65.67,47.63c-1.29,1.43-2.58,2.13-3.84,2.07a5.19,5.19,0,0,1-3.38-2,1,1,0,0,0-1.6,1.17,7.26,7.26,0,0,0,4.87,2.81H62A7,7,0,0,0,67.15,49a1,1,0,0,0-1.47-1.32Z"></path> <path class="cls-2" d="M43.38,49a1,1,0,0,0-1.48-1.32c-1.28,1.43-2.57,2.13-3.84,2.07a5.23,5.23,0,0,1-3.38-2,1,1,0,0,0-1.6,1.17A7.26,7.26,0,0,0,38,51.7h.25A7.1,7.1,0,0,0,43.38,49Z"></path> </svg> 