<?xml version="1.0" encoding="UTF-8"?> <svg xmlns="http://www.w3.org/2000/svg" id="Слой_1" data-name="Слой 1" viewBox="0 0 100 100"> <defs> <style>.cls-1{fill:#b8c922;}.cls-2{fill:#fff;}</style> </defs> <title>kid2Монтажная область 1 копия</title> <circle class="cls-1" cx="49.91" cy="50.02" r="50"></circle> <path class="cls-2" d="M58.73,66.93a1.07,1.07,0,0,0-1.39.57,8,8,0,0,1-14.63.31,1.07,1.07,0,0,0-1.42-.5,1.06,1.06,0,0,0-.5,1.41,10.14,10.14,0,0,0,18.51-.4A1.07,1.07,0,0,0,58.73,66.93Z"></path> <path class="cls-2" d="M44.74,56.91a1.06,1.06,0,0,0-1.58-1.42c-1.3,1.45-2.6,2.16-3.88,2.1a5.25,5.25,0,0,1-3.41-2,1.06,1.06,0,1,0-1.71,1.24,7.3,7.3,0,0,0,5,2.88h.28C41.29,59.71,43.07,58.77,44.74,56.91Z"></path> <path class="cls-2" d="M63.68,55.49c-1.3,1.45-2.61,2.17-3.88,2.1a5.3,5.3,0,0,1-3.42-2,1.06,1.06,0,1,0-1.71,1.24,7.31,7.31,0,0,0,5,2.88H60c1.85,0,3.63-.94,5.3-2.8a1.06,1.06,0,0,0-1.58-1.42Z"></path> <path class="cls-2" d="M74.68,46.37c-.17-2.89-1.07-10.6-5.91-15.14a12.93,12.93,0,0,0-10.16-3.35c-2.38.16-4.55.35-6.46.52-11.92,1-15.52,1.36-19.19-8.88a1.1,1.1,0,0,0-1.12-.7,1,1,0,0,0-.4.12c-.31.16-7.61,4.11-9.75,12-1.3,4.83-.39,10,2.72,15.46a9.56,9.56,0,0,0,1.46,19h.69C30.21,75.18,39.24,82.1,49.78,82.1S69.35,75.18,73,65.43h.55a9.56,9.56,0,0,0,1.14-19.06ZM23.73,31.54c1.44-5.36,5.71-8.77,7.69-10.1C35.55,32,40.64,31.53,52.33,30.51c1.9-.17,4.06-.36,6.42-.52a10.94,10.94,0,0,1,8.57,2.78c4.35,4.07,5.11,11.46,5.25,13.9C63.29,48.75,60.08,38.83,60,38.4a1.08,1.08,0,0,0-.85-.74,1.06,1.06,0,0,0-1,.44c-5.9,8.4-15.54,10.16-19.41,10.53-5.07.49-9.8-.44-11.85-2.32C23.55,41,22.51,36.06,23.73,31.54ZM18.42,55.86a7.47,7.47,0,0,1,6.41-7.37v7.37a27.25,27.25,0,0,0,1,7.45A7.46,7.46,0,0,1,18.42,55.86ZM49.78,80C37.19,80,27,69.16,27,55.86V49a19,19,0,0,0,9,1.9,29.09,29.09,0,0,0,2.92-.14c3.93-.37,13.37-2.09,19.8-9.92,1.56,3.25,5.72,9.61,13.94,8v7C72.6,69.16,62.36,80,49.78,80ZM73.69,63.31a27.69,27.69,0,0,0,1-7.45V48.51a7.45,7.45,0,0,1-1,14.8Z"></path> </svg> 